<svg width="70" height="65" viewBox="0 0 70 65" fill="none" xmlns="http://www.w3.org/2000/svg">
<path d="M21.7058 59.5374H16.082C13.9936 59.5374 12.0639 58.4229 11.0203 56.6139L5.36809 46.8168C5.31739 46.7289 5.38081 46.6191 5.48227 46.6191H21.7058C25.2731 46.6191 28.165 49.5109 28.165 53.0782C28.165 56.6455 25.2731 59.5374 21.7058 59.5374Z" fill="#DFCA61" stroke="#4D3356" stroke-width="0.790915" stroke-linejoin="round"/>
<path d="M13.2094 30.3509C13.3184 30.1616 13.2534 29.9198 13.0642 29.8108L10.1766 28.1467C10.1393 28.1253 10.1246 28.1021 10.1174 28.0831C10.1089 28.0606 10.1065 28.0308 10.1149 27.999C10.1233 27.9672 10.14 27.9424 10.1585 27.927C10.1742 27.914 10.1983 27.9011 10.2413 27.9007L21.7441 27.8088C21.9829 27.8069 22.2041 27.9343 22.3222 28.142L28.0104 38.1404C28.0316 38.1777 28.0326 38.2051 28.0291 38.2252C28.0251 38.2489 28.0121 38.2758 27.9887 38.299C27.9654 38.3222 27.9384 38.3351 27.9147 38.339C27.8946 38.3423 27.8672 38.3412 27.83 38.3197L24.9423 36.6557C24.7531 36.5466 24.5113 36.6117 24.4022 36.8009L20.2006 44.0921C20.177 44.1329 20.1335 44.1581 20.0864 44.1581L5.48091 44.1581C5.37948 44.1581 5.31606 44.0483 5.3667 43.9605L13.2094 30.3509Z" fill="#B2DE9F" stroke="#4D3356" stroke-width="0.790915" stroke-linejoin="round"/>
<path d="M60.4305 37.771L63.2424 42.6414C64.2867 44.45 64.2863 46.6785 63.2415 48.4868L57.5831 58.2802C57.5323 58.3681 57.4055 58.3681 57.3548 58.2802L51.8135 48.6824L49.243 44.2302C47.4593 41.1408 48.5178 37.1905 51.6072 35.4068C54.6965 33.6232 58.6469 34.6817 60.4305 37.771Z" fill="#919FDC" stroke="#4D3356" stroke-width="0.790915" stroke-linejoin="round"/>
<path d="M39.2972 59.3268C39.0788 59.327 38.9019 59.5042 38.9021 59.7226L38.9048 63.0554C38.9049 63.0983 38.8922 63.1226 38.8793 63.1384C38.864 63.157 38.8394 63.174 38.8077 63.1827C38.7759 63.1913 38.7461 63.1892 38.7235 63.1809C38.7044 63.1738 38.6812 63.1593 38.6594 63.1223L32.8284 53.2066C32.7073 53.0007 32.7071 52.7454 32.8278 52.5393L38.6426 42.614C38.6644 42.577 38.6876 42.5624 38.7067 42.5554C38.7293 42.547 38.7591 42.5448 38.7908 42.5534C38.8226 42.562 38.8472 42.579 38.8625 42.5976C38.8754 42.6133 38.8882 42.6376 38.8882 42.6806L38.8909 46.0134C38.8911 46.2318 39.0683 46.4087 39.2867 46.4085L47.7781 46.4016L55.2329 59.3138L39.2972 59.3268Z" fill="#DFC8D4" stroke="#4D3356" stroke-width="0.790915" stroke-linejoin="round"/>
<path d="M21.9603 15.0383L24.7722 10.1679C25.8164 8.35927 27.7465 7.24536 29.8349 7.24603L41.1455 7.24966C41.247 7.24969 41.3104 7.35952 41.2597 7.44739L33.1479 21.4974C31.3642 24.5868 27.4139 25.6453 24.3245 23.8616C21.2352 22.078 20.1767 18.1276 21.9603 15.0383Z" fill="#DFC8D4" stroke="#4D3356" stroke-width="0.790915" stroke-linejoin="round"/>
<path d="M51.5891 22.1417C51.6984 22.3307 51.9403 22.3953 52.1294 22.286L55.0143 20.6172C55.0515 20.5957 55.0789 20.5946 55.099 20.5978C55.1228 20.6017 55.1498 20.6146 55.1731 20.6377C55.1965 20.6609 55.2096 20.6878 55.2136 20.7115C55.2171 20.7316 55.2162 20.7589 55.195 20.7963L49.5232 30.804C49.4055 31.0118 49.1845 31.1396 48.9456 31.1381L37.4427 31.065C37.3997 31.0647 37.3755 31.0518 37.3599 31.0388C37.3413 31.0234 37.3245 30.9987 37.3161 30.9669C37.3077 30.9351 37.31 30.9053 37.3185 30.8828C37.3257 30.8637 37.3403 30.8405 37.3775 30.819L40.2625 29.1503C40.4515 29.0409 40.5161 28.799 40.4068 28.6099L36.1932 21.3256C36.1696 21.2848 36.1696 21.2345 36.1932 21.1937L43.4959 8.545C43.5466 8.45716 43.6734 8.45711 43.7242 8.54491L51.5891 22.1417Z" fill="#DC8D6B" stroke="#4D3356" stroke-width="0.790915" stroke-linejoin="round"/>
</svg>
